<?xml version="1.0" standalone="no"?>
<!DOCTYPE svg PUBLIC "-//W3C//DTD SVG 20010904//EN"
 "http://www.w3.org/TR/2001/REC-SVG-20010904/DTD/svg10.dtd">
<svg version="1.0" xmlns="http://www.w3.org/2000/svg"
 width="250.000000pt" height="250.000000pt" viewBox="0 0 250.000000 250.000000"
 preserveAspectRatio="xMidYMid meet">

<g transform="translate(0.000000,250.000000) scale(0.100000,-0.100000)"
fill="#000000" stroke="none">
<path d="M500 1295 c0 -14 5 -25 10 -25 6 0 10 7 10 15 0 8 7 15 15 15 11 0
15 -12 15 -45 0 -25 -4 -45 -10 -45 -5 0 -10 -4 -10 -10 0 -5 13 -10 28 -10
29 0 29 0 24 55 -3 37 -1 55 7 55 6 0 11 -7 11 -15 0 -8 5 -15 10 -15 6 0 10
11 10 25 0 24 -3 25 -60 25 -57 0 -60 -1 -60 -25z"/>
<path d="M635 1255 c0 -60 2 -65 22 -65 19 0 21 4 16 35 -5 29 -3 35 12 35 15
0 17 -6 12 -35 -5 -32 -4 -35 18 -35 22 0 24 3 19 33 -10 55 -13 60 -39 55
-21 -4 -25 -1 -25 18 0 16 -6 24 -17 24 -15 0 -18 -10 -18 -65z"/>
<path d="M760 1305 c0 -9 5 -15 11 -13 6 2 11 8 11 13 0 5 -5 11 -11 13 -6 2
-11 -4 -11 -13z"/>
<path d="M1190 1311 c0 -6 4 -12 9 -16 5 -3 17 -28 26 -55 22 -66 46 -67 70
-2 10 26 22 51 26 57 16 16 10 25 -17 25 -17 0 -24 -5 -22 -12 3 -7 0 -29 -7
-48 l-12 -34 -11 32 c-6 18 -9 39 -6 47 5 11 -2 15 -25 15 -17 0 -31 -4 -31
-9z"/>
<path d="M1425 1310 c-3 -5 -1 -10 4 -10 6 0 11 -20 11 -45 0 -33 -4 -45 -15
-45 -9 0 -15 9 -15 24 0 13 -7 29 -14 36 -19 15 -58 10 -64 -9 -3 -9 1 -11 16
-7 11 4 23 2 27 -4 4 -6 -4 -10 -19 -10 -30 0 -42 -16 -27 -34 7 -9 35 -14 77
-14 54 0 64 2 60 15 -3 8 -6 37 -6 64 0 36 -4 49 -14 49 -8 0 -18 -4 -21 -10z
m-48 -96 c-3 -3 -12 -4 -19 -1 -8 3 -5 6 6 6 11 1 17 -2 13 -5z"/>
<path d="M1787 1314 c-8 -8 1 -24 14 -24 5 0 9 7 9 15 0 15 -12 20 -23 9z"/>
<path d="M1710 1291 c-7 -14 -6 -31 3 -58 12 -37 14 -38 60 -40 40 -2 48 1 43
13 -3 9 -6 29 -6 45 0 22 -5 29 -20 29 -11 0 -20 -4 -20 -10 0 -5 5 -10 10
-10 6 0 10 -11 10 -25 0 -20 -5 -25 -25 -25 -20 0 -25 5 -25 24 0 13 6 27 13
30 10 5 10 7 0 12 -7 3 -13 12 -13 20 0 20 -18 17 -30 -5z"/>
<path d="M755 1235 c0 -41 2 -45 24 -45 17 0 22 4 17 16 -3 9 -6 29 -6 45 0
21 -5 29 -17 29 -15 0 -18 -9 -18 -45z"/>
<path d="M815 1270 c-4 -6 5 -10 19 -10 32 0 34 -17 4 -22 -15 -2 -23 -10 -23
-23 0 -17 7 -20 42 -22 l42 -2 -5 32 c-3 18 -7 38 -10 45 -4 14 -60 16 -69 2z
m45 -50 c0 -5 -7 -10 -16 -10 -8 0 -12 5 -9 10 3 6 10 10 16 10 5 0 9 -4 9
-10z"/>
<path d="M921 1267 c-27 -27 11 -83 47 -70 10 4 13 2 8 -5 -4 -7 -16 -12 -26
-12 -28 0 -33 -17 -8 -24 36 -9 68 19 68 58 0 19 3 41 6 49 4 12 -4 15 -39 15
-25 0 -50 -5 -56 -11z m57 -30 c2 -12 -3 -17 -17 -17 -12 0 -21 6 -21 13 0 31
32 34 38 4z"/>
<path d="M1042 1268 c-36 -36 7 -91 54 -69 42 19 26 81 -21 81 -12 0 -26 -5
-33 -12z m52 -17 c9 -14 -4 -41 -19 -41 -15 0 -28 27 -19 41 3 5 11 9 19 9 8
0 16 -4 19 -9z"/>
<path d="M1496 1258 c-13 -19 -14 -25 -2 -43 14 -22 67 -28 73 -9 2 7 -5 10
-20 7 -14 -3 -28 0 -31 6 -5 7 5 11 28 11 29 0 34 3 29 18 -14 38 -54 43 -77
10z m54 -8 c0 -5 -9 -10 -20 -10 -11 0 -20 5 -20 10 0 6 9 10 20 10 11 0 20
-4 20 -10z"/>
<path d="M1595 1234 c0 -35 4 -44 17 -44 9 0 20 5 23 10 3 6 1 10 -5 10 -19 0
-6 45 14 48 17 4 18 0 13 -32 -5 -31 -3 -36 13 -36 10 0 22 5 25 10 3 6 2 10
-4 10 -5 0 -11 15 -13 33 -3 30 -6 32 -43 34 l-40 2 0 -45z"/>
<path d="M1835 1234 c0 -38 3 -44 21 -44 18 0 22 5 20 31 0 19 5 34 13 37 11
4 13 -3 8 -32 -5 -33 -4 -36 18 -36 22 0 23 3 18 35 -5 29 -3 35 12 35 15 0
17 -6 12 -35 -5 -32 -4 -35 18 -35 22 0 24 3 19 33 -3 17 -7 37 -9 43 -2 7
-32 11 -77 11 l-73 1 0 -44z"/>
</g>
</svg>
